<?xml version="1.0" encoding="UTF-8" standalone="no"?><svg xmlns="http://www.w3.org/2000/svg" xmlns:xlink="http://www.w3.org/1999/xlink" fill="#f0ad37" height="396.8" preserveAspectRatio="xMidYMid meet" version="1" viewBox="0.0 -0.2 349.9 396.8" width="349.9" zoomAndPan="magnify"><g id="change1_1"><path clip-rule="evenodd" d="M2.72,303.76l157.08,90.68c3.63,2.09,8.16-0.52,8.16-4.71V208.32 c0-1.94-1.04-3.74-2.72-4.71L8.17,112.93c-3.63-2.09-8.16,0.52-8.16,4.71L0,299.05C0,300.99,1.04,302.79,2.72,303.76z M23.53,279.23 l36.3,20.96c7.96,4.58,1,16.66-6.95,12.09l-36.3-20.96C8.62,286.74,15.58,274.65,23.53,279.23z M59.98,68.69l157.08,90.69 c3.63,2.09,3.63,7.33,0,9.43l-39.38,22.74c-1.68,0.97-3.76,0.97-5.44,0L15.15,100.86c-3.63-2.09-3.63-7.33,0-9.43l39.38-22.74 C56.22,67.72,58.3,67.72,59.98,68.69z M274.11,135.86l-32.21,18.6c-1.68,0.97-3.76,0.97-5.44,0L79.39,63.77 c-3.63-2.09-3.63-7.33,0-9.43l32.21-18.6c1.68-0.97,3.76-0.97,5.44,0l157.08,90.69C277.74,128.53,277.74,133.76,274.11,135.86z M334.77,100.85l-35.82,20.68c-1.68,0.97-3.76,0.97-5.44,0l-157.09-90.7c-3.63-2.09-3.63-7.33,0-9.43l35.82-20.68 c1.68-0.97,3.76-0.97,5.44,0l157.09,90.7C338.4,93.52,338.4,98.76,334.77,100.85z M341.75,112.92l-35.8,20.67 c-1.68,0.97-2.72,2.77-2.72,4.71l-0.03,38.37c0,2.41-1.26,4.76-3.5,6.04l-55.3,31.93c-5.4,3.46-11.05-0.6-11.05-5.71v-24 c0-4.19-4.54-6.81-8.16-4.71l-40.51,23.39c-1.68,0.97-2.72,2.77-2.72,4.71v181.42c0,4.19,4.54,6.81,8.16,4.71l157.08-90.68 c1.68-0.97,2.72-2.77,2.72-4.71l-0.01-181.41C349.91,113.44,345.38,110.83,341.75,112.92z M265.78,327.04l-52.93,30.56 c-5.22,3.26-10.92-0.61-10.92-5.8l0.03-61.6c0-2.41,1.26-4.76,3.5-6.04l53.19-30.7c4.8-2.86,10.6,0.63,10.6,5.95l0,61.21 C269.39,323.15,268.13,325.68,265.78,327.04z M247.35,187.41v-16.83c0-1.94,1.04-3.74,2.72-4.71l30.99-17.89 c3.63-2.09,8.16,0.52,8.16,4.71v16.83c0,1.94-1.04,3.74-2.72,4.71l-30.99,17.89C251.89,194.22,247.35,191.6,247.35,187.41z M218.65,292.63l28.49-16.45c3.63-2.09,8.16,0.52,8.16,4.71l0,32.92c0,1.94-1.04,3.74-2.72,4.71l-28.49,16.45 c-3.63,2.09-8.16-0.52-8.16-4.71v-32.92C215.93,295.4,216.96,293.61,218.65,292.63z" fill-rule="evenodd"/></g></svg>